<?xml version="1.0" encoding="UTF-8" standalone="no"?>
<svg
   viewBox="0 0 300.19288 59.499999"
   xml:space="preserve"
   name="WillysLogo"
   class="sc-7b472ccd-0 dUuFKq"
   version="1.1"
   id="svg4"
   sodipodi:docname="Willys_logo.svg"
   width="300.19287"
   height="59.5"
   xmlns:inkscape="http://www.inkscape.org/namespaces/inkscape"
   xmlns:sodipodi="http://sodipodi.sourceforge.net/DTD/sodipodi-0.dtd"
   xmlns="http://www.w3.org/2000/svg"
   xmlns:svg="http://www.w3.org/2000/svg"
   xmlns:rdf="http://www.w3.org/1999/02/22-rdf-syntax-ns#"
   xmlns:cc="http://creativecommons.org/ns#"
   xmlns:dc="http://purl.org/dc/elements/1.1/"><defs
     id="defs4" /><sodipodi:namedview
     id="namedview4"
     pagecolor="#ffffff"
     bordercolor="#000000"
     borderopacity="0.25"
     inkscape:showpageshadow="2"
     inkscape:pageopacity="0.0"
     inkscape:pagecheckerboard="0"
     inkscape:deskcolor="#d1d1d1"><inkscape:page
       x="0"
       y="1.110076e-15"
       width="300.19287"
       height="59.5"
       id="page2"
       margin="0"
       bleed="0" /></sodipodi:namedview><title
     id="title1">Willys</title><path
     fill-rule="evenodd"
     clip-rule="evenodd"
     fill="#e60019"
     d="m 161.3,15.505172 h -7.1 V 5.3051713 h 28.6 V 15.505172 h -6.9 v 30.8 h 4.4 l 1,-5.4 0.2,-0.1 h 0.2 l 0.1,0.1 h 10.9 v 17.4 h -38.5 v -9 l 7.1,-1.6 z"
     id="path1" /><path
     fill-rule="evenodd"
     clip-rule="evenodd"
     d="M 0,15.505172 V 5.3051713 H 23.6 V 15.505172 h -4.8 l 4.1,21 L 30,5.3051713 h 15.1 l 7,30.6000007 4.6,-20.4 h -5 V 5.3051713 H 74.4 V 15.505172 h -3.3 l -10.6,42.8 H 42.7 l -5.9,-30.4 -6.6,30.4 H 13.3 l -10.3,-42.8 z"
     id="path2" /><path
     fill-rule="evenodd"
     clip-rule="evenodd"
     fill="#e60019"
     d="m 117.3,15.505172 h -7.1 V 5.3051713 h 28.6 V 15.505172 h -6.9 v 30.8 h 4.4 l 1,-5.4 h 0.1 l 0.1,-0.1 h 0.2 l 0.2,0.1 h 10.8 v 17.4 h -38.5 v -9 l 7.1,-1.6 z"
     id="path3" /><path
     fill-rule="evenodd"
     clip-rule="evenodd"
     d="M 192.1,15.505172 V 7.4051713 l -0.1,-1 0.1,-1.1 h 20.7 l 1,0.1 1,-0.1 V 15.505172 h -3.1 l 4.6,10 5,-10 h -3.4 V 5.3051713 h 22.6 V 15.505172 h -3.7 l -12.9,25.4 v 6.8 l 6.4,1.6 v 9 h -28.6 v -9 l 7,-1.6 v -6.8 l -5.4,-9.8 -1.3,-2.7 -7,-12.9 z m 71.9,1.5 c 0.6,-2.5 1.6,-4.2 3.1,-6.3 l 1.4,-1.4000007 1.6,-1.3 c 3.3,-2.1 6.7,-2.9 10.5,-3.4 l 1,-0.1 h 3.8 l 1.8,0.1 1.8,0.2 1.8,0.2 1.8,0.2 1.8,0.3 1.8,0.3 1.8,0.3 V 21.605172 h -12.6 v -5.1 h -1.1 l -1.3,0.3 -1.8,0.7 c -2.5,1.4 -2.9,3.9 -0.3,5.5 l 0.8,0.5 1.7,0.7 2.6,0.9 1.3,0.5 c 3.5,1.4 7.4,3.2 9.9,6 l 1.2,1.7 c 2.1,4.1 2.2,6.7 1.1,11.1 l -0.2,0.8 c -1.6,5 -4.5,8.4 -9.5,10.9 l -1.8,0.8 c -5.6,2.1 -10.4,2 -16.4,1.6 l -1.7,-0.2 -5,-0.9 v -16.5 H 277 v 4.8 h 3.9 l 1.6,-0.6 0.3,-0.1 c 2.4,-1.8 1.4,-3.7 -0.3,-5.3 l -0.3,-0.2 -1.8,-0.7 -2.1,-0.7 -2.1,-0.7 -2.1,-0.8 -3,-1.3 -1.8,-1.2 -1.6,-1.4 -1.3,-1.6 -1.1,-1.6 -0.8,-1.5 -0.3,-0.8 c -1,-3.7 -1.2,-6.6 -0.2,-10.2 m -186.2,2.1 h 19.7 l 0.5,0.1 0.6,-0.1 h 0.6 v 28.6 l 5.6,1.6 v 9 h -27 v -9 l 6.7,-1.6 v -18 H 77.8 Z M 91.9,0.00517132 A 8.5,8.5 0 1 1 91.91,16.995172 8.5,8.5 0 0 1 91.9,0.00517132 M 248.2,21.205172 a 8.5,8.5 0 1 1 0.01,16.99 8.5,8.5 0 0 1 -0.01,-16.99 m 0,21.3 a 8.5,8.5 0 1 1 0.01,16.99 8.5,8.5 0 0 1 -0.01,-16.99"
     id="path4" /><metadata
     id="metadata4"><rdf:RDF><cc:Work
         rdf:about=""><dc:title>Willys</dc:title></cc:Work></rdf:RDF></metadata></svg>
