<?xml version="1.0" encoding="UTF-8"?>
<svg xmlns="http://www.w3.org/2000/svg" viewBox="0 0 97.87 19.80" version="1.1">
  <title>Hemköp logo</title>
  <g style="fill:none;fill-rule:evenodd;stroke:none;stroke-width:1" transform="translate(-0.071,-0.060)">
    <g transform="translate(-18,-164)" style="fill:#ee1c2e">
      <g transform="translate(0,148)">
        <g transform="translate(18,16)">
          <g>
            <path d="M 73.206,3.245 C 73.806,2.913 74.061,2.094 73.943,1.582 73.729,0.648 72.512,-0.192 71.254,0.535 c -0.448,0.34 -0.768,0.617 -0.838,1.387 -0.110,1.217 1.361,1.920 2.790,1.323"/>
            <path d="M 76.533,3.325 C 77.042,3.512 78.043,3.497 78.596,2.945 79.298,2.242 79.397,0.776 78.182,0.297 77.533,0.040 76.934,0.152 76.371,0.525 75.117,1.351 75.654,3.003 76.533,3.325"/>
            <path d="M 95.938,5.771 C 93.849,4.417 91.273,4.549 89.308,5.477 87.244,6.451 86.602,7.810 86.602,7.810 86.734,5.580 86.170,5.063 84.522,5.063 c -2.166,0 -3.720,0.339 -5.613,0.184 -1.922,-0.158 -3.508,-0.202 -4.705,-0.202 -1.161,0 -3.491,-0.075 -5.267,1.822 -0.163,0.172 -0.306,0.347 -0.435,0.524 -1.786,2.329 -0.695,5.788 -3.596,5.441 -1.389,-0.167 -2.601,-2.053 -1.912,-2.712 0.179,-0.174 3.571,-3.554 3.081,-4.296 -0.858,-1.300 -3.350,-0.846 -4.616,0.500 -1.265,1.347 -3.172,5.266 -3.557,5.019 -0.455,-0.295 0.617,-5.784 0.768,-7.263 C 58.769,3.098 59.362,0.691 57.905,0.182 57.483,0.034 55.085,-0.448 54.354,2.493 c -0.356,1.428 -0.724,3.766 -0.865,5.517 -0.044,0.522 -0.085,1.241 -0.103,1.997 0,0 -0.509,2.623 -1.988,2.622 C 49.602,12.628 50.875,9.093 50.629,7.202 50.517,6.339 50.128,5.654 49.600,5.317 47.924,4.250 44.912,4.564 42.549,7.491 42.641,6.123 41.504,4.788 39.877,4.684 38.461,4.593 36.750,5.413 35.607,6.890 35.832,5.254 34.356,4.310 32.921,4.678 c -0.658,0.168 -1.309,0.472 -2.127,1.693 -1.363,2.035 -1.780,5.087 -4.401,6.534 -2.936,1.619 -5.123,0.442 -5.346,0.151 0,0 3.076,0.133 5.100,-1.742 1.491,-1.382 1.710,-3.658 0.330,-5.064 -1.207,-1.231 -3.042,-1.643 -5.068,-1.516 -2.282,0.141 -5.674,1.319 -5.943,5.754 0,0 -0.269,4.623 4.369,5.991 1.457,0.429 4.902,0.869 7.937,-1.093 3.154,-2.040 3.880,-4.518 3.880,-4.518 0,0 -0.342,1.633 -0.063,3.958 0.094,0.813 0.595,1.395 1.344,1.570 0.689,0.160 1.537,0.055 2.018,-0.547 0.649,-0.813 0.472,-2.452 0.991,-4.634 0.630,-2.649 3.144,-3.207 3.144,-1.491 0,1.716 -0.081,4.297 0.292,5.450 0.354,1.093 1.383,1.165 1.915,1.153 0.802,-0.017 1.350,-0.371 1.632,-1.082 0.280,-0.713 0.387,-1.867 0.794,-3.685 0.791,-3.553 3.040,-3.274 3.040,-2.055 0,0.549 -0.104,1.850 -0.009,3.311 0.084,1.279 0.430,3.483 2.934,3.483 2.244,0 3.528,-2.093 4.039,-2.861 0.090,0.689 0.591,3.359 3.137,2.632 0.989,-0.283 2.227,-1.467 3.228,-2.580 0.910,1.132 1.763,1.991 2.648,2.340 2.524,0.997 4.345,0.048 5.368,-2.424 0.414,0.887 1.765,2.892 5.526,2.892 5.146,0 6.202,-4.284 6.352,-5.418 0.124,-0.930 0.287,-1.757 0.340,-2.131 0.099,-0.692 0.736,-0.652 1.571,-0.390 0.788,0.247 0.792,0.768 0.748,1.234 -0.064,1.091 -0.481,4.146 -0.545,6.353 -0.061,2.205 -0.003,2.994 0.743,3.527 0.573,0.411 1.761,0.573 2.591,0.091 0.831,-0.482 0.865,-1.911 0.970,-2.970 0.107,-1.054 0.329,-3.905 1.262,-5.313 1.802,-3.033 4.389,-2.971 5.236,-2.265 1.298,1.082 0.554,3.265 -1.540,3.542 -0.996,0.133 -1.653,-0.478 -2.404,0.025 -0.812,0.545 -0.806,2.036 0.243,2.562 0.872,0.437 3.070,0.748 5.159,0.090 4.782,-1.505 4.209,-7.760 1.580,-9.464 z M 19.923,10.622 c 0,0 -0.537,-2.903 2.481,-2.917 1.178,-0.005 1.758,1.070 1.069,1.863 -1.098,1.262 -3.550,1.054 -3.550,1.054 z m 53.440,2.350 C 71.185,12.581 70.770,9.981 71.623,8.722 72.326,7.686 75.919,7.414 76.400,9.248 76.880,11.082 75.551,13.362 73.363,12.972 Z"/>
            <path d="M 14.504,1.243 C 14.418,1.029 13.875,0.677 13.239,0.680 12.817,0.683 11.061,0.649 10.336,3.325 9.977,4.652 9.941,5.451 9.897,7.119 L 4.868,7.010 C 4.936,6.278 4.909,2.255 4.605,1.243 4.538,1.021 3.963,0.677 3.327,0.680 2.905,0.683 1.081,0.649 0.420,3.325 0.087,4.672 0.075,5.475 0.071,7.197 c 0,0 0,6.529 0.884,8.697 0.530,1.303 3.052,1.337 3.431,0.039 0.187,-0.635 0.382,-4.784 0.382,-4.784 l 5.165,-0.073 c 0.073,1.815 0.245,3.798 0.636,4.818 0.499,1.303 2.895,1.294 3.430,0.039 0.471,-1.104 0.683,-8.146 0.683,-8.146 0.086,-0.732 0.221,-5.553 -0.178,-6.544"/>
          </g>
        </g>
      </g>
    </g>
  </g>
</svg>
