<svg aria-labelledby="mathem-logo" focusable="false" height="100%" role="presentation" viewBox="0 0 96 24" width="100%" xmlns="http://www.w3.org/2000/svg"><path d="M91.079 16.073s-.805.245-1.048.245c-.48 0-1.119-.15-1.123-1.445V11.29c0-2.557-1.545-4.274-3.844-4.274-1.437 0-2.657.572-3.395 1.702-.659-1.072-1.737-1.702-2.951-1.702-1.16 0-2.209.42-2.886 1.254v-.972H73.15V18.7h2.728v-6.26c0-.806.202-1.479.584-1.945.353-.432.835-.66 1.393-.66 1.027 0 1.762.798 1.762 2.135v6.73h2.788v-6.26c0-1.583.897-2.606 2.099-2.606 1.012 0 1.617.8 1.617 2.136v3.01c0 1.251.348 2.276 1.01 2.964.617.642 1.489.981 2.519.981 1.374 0 2.35-.609 2.35-.609l-.921-2.243Zm-43.884-.152s-.668.428-1.37.428c-.809 0-1.235-.494-1.235-1.428V9.893h2.72V7.27h-2.72V4.473h-2.75v2.796h-1.541v2.624h1.54v5.144c0 1.198.369 2.196 1.066 2.888.657.653 1.56.998 2.61.998 1.535 0 2.61-.736 2.61-.736l-.93-2.266Zm-7.028-.083s-.324.42-.909.42c-.272 0-.55-.09-.55-.758V7.269h-2.705v.886c-.768-.773-1.813-1.163-3.115-1.163-1.466 0-2.76.526-3.846 1.563-1.091 1.067-1.644 2.555-1.644 4.426 0 .81.155 1.803.356 2.355-.899 1.304-2.503 1.587-2.696-.333-.082-.948-.116-1.318-.19-2.226-.256-3.159-.75-9.777-.75-9.777h-2.613l-4.433 9.464L13.249 3h-2.91S8.895 15.984 8.743 16.816c-.188 1.036-.693 1.517-1.586 1.517-.286 0-1.131-.283-1.131-.283L5 20.373S5.992 21 7.406 21c2.258 0 3.743-1.453 4.073-3.988l1.02-8.944 3.447 8.258h2.216l3.65-7.877.516 6.453c.154 2.738 1.311 4.013 3.643 4.013 1.47 0 2.39-.488 3.14-1.44.76.825 2.246 1.446 3.533 1.447 1.459 0 2.721-.533 3.761-1.584.42.973 1.33 1.561 2.454 1.561 1.47 0 2.143-1.024 2.143-1.024l-.835-2.037Zm-9.313-.296c-.592-.618-.898-1.488-.898-2.608 0-2.264 1.401-3.523 3.067-3.523.853 0 1.577.297 2.212.914.613.617.92 1.464.92 2.585.13 3.386-3.615 4.53-5.301 2.632Zm39.42-7.027c-.939-.98-2.146-1.478-3.587-1.478-1.51 0-2.827.526-3.912 1.563-1.106 1.06-1.666 2.524-1.666 4.357 0 .87.13 1.678.378 2.343-.581 1.11-1.546 1.2-1.957 1.032-.494-.187-.675-.662-.675-1.367v-3.943l-.01.003c-.06-1.199-.453-2.161-1.167-2.862-.763-.748-1.714-1.127-2.831-1.127-1.201 0-2.103.4-2.828 1.354V3.061h-2.751V18.75h2.75v-5.91c0-1.92.836-3.022 2.187-3.022 1.223 0 1.898.845 1.898 2.376v2.886c0 3.41 2.522 3.805 2.971 3.859.804.12 2.296.185 3.825-1.507.48.47 1.799 1.536 3.9 1.536 1.762 0 3.246-.69 4.419-2.048l-1.964-1.629c-.616.64-1.418.965-2.389.965-1.367 0-2.37-.716-2.737-1.933h7.436s.127-.447.127-1.598c-.002-1.838-.465-3.215-1.417-4.209Zm-6.387 3.586c.155-2.564 3.043-3.42 4.503-1.987.51.462.752 1.131.775 1.987h-5.278Z"></path></svg>